<svg id="即速商店_拷贝_3" data-name="即速商店 拷贝 3" xmlns="http://www.w3.org/2000/svg" width="2300" height="591" viewBox="0 0 2300 591">
  <metadata><?xpacket begin="﻿" id="W5M0MpCehiHzreSzNTczkc9d"?>
<x:xmpmeta xmlns:x="adobe:ns:meta/" x:xmptk="Adobe XMP Core 5.6-c138 79.159824, 2016/09/14-01:09:01        ">
   <rdf:RDF xmlns:rdf="http://www.w3.org/1999/02/22-rdf-syntax-ns#">
      <rdf:Description rdf:about=""/>
   </rdf:RDF>
</x:xmpmeta>
                                                                                                    
                                                                                                    
                                                                                                    
                                                                                                    
                                                                                                    
                                                                                                    
                                                                                                    
                                                                                                    
                                                                                                    
                                                                                                    
                                                                                                    
                                                                                                    
                                                                                                    
                                                                                                    
                                                                                                    
                                                                                                    
                                                                                                    
                                                                                                    
                                                                                                    
                                                                                                    
                           
<?xpacket end="w"?></metadata>
<defs>
    <style>
      .cls-1 {
        fill: #2b2b2b;
      }

      .cls-1, .cls-2 {
        fill-rule: evenodd;
      }

      .cls-2 {
        fill: #3091f2;
      }
    </style>
  </defs>
  <path id="矩形_3" data-name="矩形 3" class="cls-1" d="M814.746,450.143H889.01l40.16,124.905H855.849L846.9,548.581,709,590l1-69,0.076-2.136,5.7-320.493H909.508l-4.264,236.914H768l-1.145,66.863,58.538-14.859-10.645-37.146h0ZM995,249.552L989.26,584.334H932.772l6.817-385.963H1095.81l-6.45,364.6h-83.75l1.07-62.684h27.26l4.3-250.739H995ZM836.763,372.135l0.508-29.717H769.59l-0.509,29.717h67.682ZM771.18,249.552l-0.51,29.717h67.683l0.509-29.717H771.18Zm689.06,260.954h-65.15l1.5-93.795h-96.93l2.35-146.729h96.94l0.23-14.858h-107.5l0.99-61.292h107.5l0.24-14.858h65.15l-0.23,14.858H1569.3l-0.98,61.292H1464.34l-0.24,14.858h95.18l-2.36,146.729h-95.17l-1.51,93.795h0Zm-106.3-179.232-0.39,24.145h44.03l0.38-24.145h-44.02Zm109.18,0-0.39,24.145H1505l0.38-24.145h-42.26Zm117.02,169.945h-72.2l-38.49-70.578h71.32l39.37,70.578h0Zm-190.82-70.578-44.27,70.578h-73.08l46.92-70.578h70.43Zm-150.09,91.938h337.04l-0.96,59.9H1203.18m5.21-300.617-84.97,139.368h60.62l-24.75,168.709,117.03-220.055-63.83-7.335Zm-51.43-88.022h73.35l1.42,80.686h-73.35Zm930.7,61.411v329.31l-61.58-.545L2026,194h177c-4.19,0-8.54-.068-12.87-0.068l15.87,0.017V178h60v15.86c2.67-.042,6.19-0.1,10.9-0.168h121.26v61.557h-310.5Zm-487.66.167h-0.29L1600,194h168V178h59v16h170v61H1600v0.416ZM1983.24,270V583.764L1920,584.823V331H1678v0.248h-0.03v52.31l0.03-.021v23.118l-0.03-.043V582.035h-62.33V270h367.6Zm224.6-.464h57.84v28.79h104.93v48.3H2265.68v27.143h104.91V583.535H2309V557.128H2170.98v26.407h-61.59V373.768h98.45V269.536Zm-36.86,165.531v59.262H2309V435.067H2170.98Z" transform="translate(-106.58 -83)"/>
  <path id="矩形_4" data-name="矩形 4" class="cls-1" d="M1827,564H1707V403h182V564h-62Zm0-99h-58v37h58V465Zm0-220h62V383h-62V245Zm-121,0h62V383h-62V245Z" transform="translate(-106.58 -83)"/>
  <path id="形状_75" data-name="形状 75" class="cls-2" d="M612.218,208.186L409.781,91.237a61.528,61.528,0,0,0-61.564,0L145.78,208.186A61.614,61.614,0,0,0,115,261.536v233.9a61.609,61.609,0,0,0,30.782,53.349L348.217,665.736a61.537,61.537,0,0,0,61.564,0L612.218,548.785A61.607,61.607,0,0,0,643,495.436v-233.9A61.612,61.612,0,0,0,612.218,208.186Zm-77.709,68.705L328.876,481.8H477.1l57.406,63.443H223.49v-333.5H534.509v65.157Zm-247.616-4.818V428.109L446.258,272.073H286.893Z" transform="translate(-106.58 -83)"/>
</svg>
