<svg style="position: absolute; width: 0; height: 0; overflow: hidden;" version="1.1" xmlns="http://www.w3.org/2000/svg" xmlns:xlink="http://www.w3.org/1999/xlink">
<defs>
<symbol id="icon-top" viewBox="0 0 32 32">
<title></title>
<path d="M29.295 17.56l-11.498-12.345c-0.467-0.502-1.122-0.79-1.797-0.79s-1.331 0.288-1.797 0.789l-11.498 12.345c-0.834 0.896-0.61 1.714-0.475 2.025s0.581 1.032 1.805 1.032h4.789c0.013 0 0.028 0.016 0.028 0.028v8.81c0.002 1.405 1.14 2.543 2.545 2.545h9.206c1.405-0.001 2.543-1.14 2.545-2.545v-8.809c0-0.013 0.016-0.028 0.028-0.028h4.789c1.223 0 1.669-0.722 1.805-1.032 0.135-0.312 0.36-1.13-0.475-2.025zM3.629 2.517h24.742c0.695 0 1.259-0.564 1.259-1.259s-0.564-1.259-1.259-1.259h-24.742c-0.695 0-1.259 0.564-1.259 1.259s0.564 1.259 1.259 1.259v0z"></path>
</symbol>
<symbol id="icon-video" viewBox="0 0 32 32">
<title></title>
<path d="M16 0.266c-8.69 0-15.734 7.044-15.734 15.734s7.044 15.734 15.734 15.734 15.734-7.044 15.734-15.734-7.044-15.734-15.734-15.734zM21.374 17.128l-8.344 4.786c-0.624 0.356-1.418 0.138-1.773-0.485-0.11-0.193-0.169-0.411-0.171-0.633v-9.596c0-0.978 1.094-1.604 1.944-1.114l8.344 4.786c0.846 0.49 0.846 1.74 0 2.256z"></path>
</symbol>
<symbol id="icon-help" viewBox="0 0 32 32">
<title></title>
<path d="M16 31.887c-8.806 0-15.943-7.137-15.943-15.943s7.137-15.943 15.943-15.943 15.943 7.137 15.943 15.943c0 8.806-7.137 15.943-15.943 15.943v0zM16.641 7.668c-3.131 0-6.177 1.55-6.177 5.532v0.064c0 0 0.185 1.143 1.438 1.143 1.070 0 1.318-1.1 1.318-1.1l0.003-0.097c0-1.36 0.877-2.8 2.75-2.8 1.118 0 2.74 0.453 2.74 2.111 0 1.527-0.496 1.837-1.992 2.93-1.443 0.982-2.182 2.266-2.129 3.85v0.54c0 0 0.038 0.313 0.288 0.418 0.419 0.176 0.76 0.182 1.027 0.183 0.868 0.001 0.997-0.008 1.263-0.175 0.127-0.079 0.24-0.362 0.247-0.464 0.144-2.22 1.821-2.583 3.117-4.559 0.732-1.068 1.002-2.003 1.002-3.316-0.002-2.067-1.955-4.259-4.895-4.259v0zM16 21.511c-0.815 0-1.475 0.66-1.475 1.475s0.66 1.475 1.475 1.475c0.814 0 1.475-0.66 1.475-1.475s-0.66-1.475-1.475-1.475z"></path>
</symbol>
<symbol id="icon-nextPage" viewBox="0 0 32 32">
<title></title>
<path d="M11.165 0.37c0.311 0 0.621 0.119 0.859 0.354l14.544 14.544c0.473 0.473 0.473 1.243 0 1.716s-1.243 0.473-1.716 0l-14.547-14.544c-0.473-0.473-0.473-1.243 0-1.716 0.238-0.238 0.549-0.354 0.859-0.354z"></path>
<path d="M25.709 14.914c0.311 0 0.621 0.119 0.859 0.354 0.473 0.473 0.473 1.243 0 1.716l-14.544 14.544c-0.473 0.473-1.243 0.473-1.716 0s-0.473-1.243 0-1.716l14.544-14.544c0.235-0.235 0.546-0.354 0.857-0.354z"></path>
</symbol>
<!-- zwt -->
<symbol id="icon-copy" viewBox="0 0 1024 1024">
<title></title>
<path d="M884.357 265.48c-7.061-7.993-15.433-11.99-25.117-11.99H325.425c-9.683 0-18.056 3.997-25.117 11.99s-10.592 17.867-10.592 29.623v622.082c0 11.285 3.53 21.042 10.592 29.27 7.061 8.228 15.433 12.343 25.117 12.343h409.137c3.228 0 9.381-4.114 18.46-12.343 9.078-8.229 19.57-18.574 31.472-31.034 11.903-12.46 24.411-26.332 37.525-41.613 13.113-15.282 25.015-29.858 35.708-43.729 10.692-13.87 19.57-26.096 26.63-36.675 7.06-10.58 10.592-17.75 10.592-21.512V295.103c0-11.756-3.531-21.63-10.592-29.623zM340.544 548.453c0-10.106 8.194-18.3 18.3-18.3h466.977c10.107 0 18.3 8.194 18.3 18.3v14.24c0 10.107-8.193 18.3-18.3 18.3H358.845c-10.107 0-18.301-8.193-18.301-18.3v-14.24z m503.847 141.34c0 10.105-8.194 18.3-18.3 18.3H359.113c-10.107 0-18.3-8.195-18.3-18.3v-14.241c0-10.106 8.193-18.3 18.3-18.3H826.09c10.107 0 18.301 8.194 18.301 18.3v14.24z m0-253.796c0 10.106-8.194 18.3-18.3 18.3H359.113c-10.107 0-18.3-8.194-18.3-18.3v-14.24c0-10.106 8.193-18.3 18.3-18.3H826.09c10.107 0 18.301 8.194 18.301 18.3v14.24z" fill="#ffffff" p-id="18729"></path><path d="M226.826 193.58h540.329v-82.666c0-9.612-7.793-17.404-17.405-17.404H146.457c-9.613 0-17.406 7.792-17.406 17.404v767.252c0 9.611 7.793 17.404 17.406 17.404h80.37V193.58z" fill="#ffffff" p-id="18730"></path>
</symbol>
<symbol id="icon-delete" viewBox="0 0 1024 1024">
<title></title>
<path d="M85.304889 158.833333C85.304889 129.577778 109.227111 105.777778 138.660444 105.777778l266.666667 0L405.327111 52.944444c0-29.333333 23.833333-52.944444 53.333333-52.944444l106.688889 0c29.388889 0 53.333333 23.722222 53.333333 52.944444l0 53.022222 266.555556 0c29.444444 0 53.388889 23.7 53.388889 52.977778l0 53.077778L85.304889 212.022222 85.304889 158.833333zM885.249333 317.688889l0 105.944444L885.249333 970.888889c0 29.444444-23.888889 53.111111-53.333333 53.111111L192.027111 1024c-29.522222 0-53.355556-23.666667-53.355556-53.111111L138.671556 423.577778l0-105.888889 0-52.888889 746.577778 0L885.249333 317.688889 885.249333 317.688889zM351.971556 423.633333c0-29.2-24-53.055556-53.422222-53.055556-29.333333 0-53.244444 23.855556-53.244444 53.055556L245.304889 865.111111c0 29.222222 23.922222 52.888889 53.333333 52.888889 29.5 0 53.333333-23.666667 53.333333-52.888889L351.971556 423.633333 351.971556 423.633333zM565.360444 423.633333c0-29.2-24.055556-53.055556-53.388889-53.055556-29.444444 0-53.3 23.855556-53.3 53.055556L458.671556 865.111111c0 29.222222 23.944444 52.888889 53.3 52.888889 29.333333 0 53.388889-23.666667 53.388889-52.888889L565.360444 423.633333zM778.638222 423.633333c0-29.2-24-53.055556-53.388889-53.055556-29.444444 0-53.333333 23.855556-53.333333 53.055556L671.916 865.111111c0 29.222222 23.944444 52.888889 53.333333 52.888889s53.388889-23.666667 53.388889-52.888889L778.638222 423.633333z" p-id="22509" fill="#ffffff"></path>
</symbol>
<symbol id="icon-qq" viewBox="0 0 1024 1024">
<title></title>
<path d="M944.0512 687.232c-6.8096-93.8368-69.7728-172.4672-106.176-213.12 5.056-11.8272 17.344-80.2944-30.1312-127.0272 0.064-1.1136 0.064-2.24 0.064-3.328 0-184.3072-131.1872-316.9792-295.7952-317.5808C347.3664 26.7904 216.192 159.4496 216.192 343.7568c0 1.088-0.0128 2.2016 0.064 3.328-47.4752 46.72-35.1616 115.2-30.1312 127.0272-36.3648 40.6656-99.3536 119.2832-106.176 213.12-1.2288 24.6656 2.5856 60.5952 14.6304 76.5696 14.6816 19.4688 54.9888-3.9168 83.8144-66.1376 8.0128 28.8384 26.5216 72.8448 68.416 128.704-70.0928 16-90.0864 85.12-66.5088 122.9184 16.64 26.624 54.7072 48.5248 120.3328 48.5248 116.7488 0 168.2944-31.3728 191.3088-53.2224 4.6848-4.7616 11.456-7.0656 20.0832-7.0784 8.6144 0.0128 15.3856 2.3168 20.0576 7.0784 23.0016 21.8496 74.5856 53.2224 191.2832 53.2224 65.6512 0 103.7056-21.9008 120.32-48.5248 23.5904-37.7856 3.5968-106.9184-66.4704-122.9184 41.8816-55.8592 60.4032-99.8656 68.416-128.704 28.8256 62.2208 69.1328 85.6064 83.8272 66.1376C941.4912 747.84 945.3184 711.8976 944.0512 687.232L944.0512 687.232z" p-id="2279"></path>
</symbol>
<symbol id="icon-share" viewBox="0 0 1024 1024">
<title></title>
<path d="M845.680406 356.497688c-53.091734 0-100.246475-23.713853-132.865818-60.598277L307.25652 477.353037c2.559049 11.225694 4.230961 22.826716 4.230961 34.837186 0 23.747974-5.73227 45.994639-15.251931 66.159944l308.245968 210.933869a132.046923 132.046923 0 0 1 85.540475-31.834568 133.275266 133.275266 0 1 1-133.275266 133.275266c0-16.650878 3.412065-32.414619 8.973731-47.0865l-310.566173-212.503419a154.293588 154.293588 0 0 1-99.325217 36.747942 155.692534 155.692534 0 0 1 0-311.385069c42.343729 0 80.661221 17.060326 108.742517 44.527451l407.946513-182.545487a177.768596 177.768596 0 0 1-4.879253-40.023525 178.075682 178.075682 0 1 1 178.041561 178.041561z" p-id="17320" fill="#ffffff"></path>
</symbol>
<symbol id="icon-star" viewBox="0 0 1024 1024">
<title></title>
<path d="M1009.5616 454.10304c-72.26368 88.02304-200.04864 233.33888-200.04864 233.33888 0 0 20.89984 159.54944 32.6144 268.53376 5.08928 55.51104-34.92864 79.5136-80.25088 57.87648-86.24128-43.32544-217.47712-110.44864-246.99904-125.57312-30.04416 14.97088-162.60096 80.98816-249.73312 124.2112-45.84448 21.58592-86.34368-2.41664-81.19296-57.82528 11.86816-108.82048 32.98304-268.21632 32.98304-268.21632 0 0-129.24928-145.00864-202.35264-232.91904-25.83552-31.92832-9.24672-77.312 41.69728-85.6576 103.8848-19.64032 264.9088-50.944 264.9088-50.944 0 0 88.07424-162.33472 143.80032-261.75488 30.6688-60.49792 51.88608-53.51424 55.51104-51.73248 9.45152 3.25632 24.3712 15.02208 43.84768 51.78368 55.0912 99.57376 142.17216 262.12352 142.17216 262.12352 0 0 159.1296 31.30368 261.80608 50.9952C1018.65472 376.73984 1035.08992 422.17472 1009.5616 454.10304L1009.5616 454.10304z" p-id="2959"></path>
</symbol>
<symbol id="icon-time" viewBox="0 0 1024 1024">
<title></title>
<path d="M720 464l-160 0 0-240c0-26.528-21.504-48-48-48s-48 21.472-48 48l0 288c0 26.496 21.472 48 48 48l208 0c26.496 0 48-21.504 48-48s-21.504-48-48-48zM512 0c-282.752 0-512 229.216-512 512s229.216 512 512 512 512-229.216 512-512-229.216-512-512-512zM512 928c-229.76 0-416-186.24-416-416s186.24-416 416-416c229.76 0 416 186.24 416 416 0 229.76-186.24 416-416 416z" p-id="8743" fill="#999999"></path>
</symbol>
<symbol id="icon-transform" viewBox="0 0 1024 1024">
<title></title>
<path d="M954.512393 695.634344 800.455691 574.73788c-3.695159-3.622504-9.252735-4.860704-14.022365-2.794649-4.860704 2.00261-7.696286 6.621814-7.696286 11.891841l0 70.319555c-161.757081 0-295.630091 56.653301-225.860051 293.112758-10.977006-147.835 61.09445-188.318016 225.860051-188.318016l0 66.10558c0 5.210675 2.835581 9.898441 7.700379 11.969613 1.619894 0.6191 3.240811 0.896416 4.933359 0.896416 3.354398 0 6.599302-1.279133 9.152451-3.795443l154.056702-120.246665C959.523523 708.84625 959.523523 700.604542 954.512393 695.634344zM545.213449 631.185496c0 0-47.432289-10.727319-24.995277-57.931411 27.753087-37.178761 44.564985-79.354326 45.911656-93.176123 0 0 42.630936-33.55114 45.147246-83.936691 2.657526-50.245358-9.353019-52.588729-9.353019-52.588729 17.990746-54.796 23.752983-260.46315-108.426455-235.904825-22.059412-43.140543-160.14128-76.968999-224.481657 37.965683-32.108279 57.31231-44.050262 135.560442-18.950607 199.391213-0.969071 4.76042-8.906857-4.619204-11.809977 24.863271-2.762927 28.448936 10.048867 69.246107 23.989367 88.142479 6.080485 7.964392 15.778358 13.790074 22.578228 16.757662 0 0 8.319479 50.690496 47.945989 98.487082 9.115612 37.933961-28.545126 57.936527-28.545126 57.936527C179.50428 655.156444 64.86124 724.32478 64.86124 799.160185l0 57.931411c0 81.21572 189.346439 98.665137 359.773993 98.665137 19.433608 0 39.107693-0.723477 58.71424-1.934049-30.656207-112.52275-22.23235-202.390523 25.960255-266.734994 15.186887-20.348444 33.728172-37.487799 55.541991-51.66059C558.361911 633.911584 551.766702 632.464629 545.213449 631.185496z" p-id="12723" fill="#ffffff"></path>
</symbol>
<symbol id="icon-view" viewBox="0 0 1024 1024">
<title></title>
<path d="M504.002 243.715c173.943 0 323.663 109.311 393.729 267.080h68.276c-73.998-195.668-252.819-333.823-462.006-333.823-209.154 0-387.973 138.156-461.973 333.823h68.277c70.066-157.768 219.785-267.080 393.696-267.080zM504.002 777.875c-173.911 0-323.631-109.311-393.696-267.080h-68.277c73.997 195.703 252.818 333.859 461.973 333.859 209.187 0 388.005-138.156 462.006-333.859h-68.276c-70.066 157.768-219.785 267.080-393.729 267.080zM337.841 510.812c0 98.338 74.393 178.045 166.175 178.045s166.176-79.709 166.176-178.045c0-98.34-74.392-178.045-166.176-178.045-91.781 0-166.175 79.707-166.175 178.045zM607.897 510.812c0 61.457-46.522 111.299-103.881 111.299s-103.847-49.842-103.847-111.299 46.488-111.3 103.847-111.3c57.36 0 103.881 49.843 103.881 111.3z" fill="#cdcdcd" p-id="8025"></path>
</symbol>
<symbol id="icon-weixin" viewBox="0 0 1024 1024">
<title></title>
<path d="M610.468864 511.408128c-17.014784 0-34.039808 15.777792-34.039808 35.244032 0 15.77472 17.025024 31.6416 34.039808 31.6416 25.561088 0 43.800576-15.86688 43.800576-31.6416 0.002048-19.46624-18.239488-35.244032-43.800576-35.244032M498.608128 347.213824c26.758144 0 43.777024-17.015808 43.777024-42.566656 0-26.758144-17.016832-42.535936-43.777024-42.535936-25.526272 0-49.85856 15.777792-49.85856 42.535936-0.001024 25.549824 24.332288 42.566656 49.85856 42.566656M370.92864 701.08672c-44.997632 0-77.831168-7.292928-120.39168-19.465216l-122.810368 62.000128 35.284992-104.537088C76.659712 578.29376 25.6 501.634048 25.6 408.014848c0-165.368832 155.635712-291.847168 345.32864-291.847168 167.817216 0 317.382656 99.72224 346.55744 240.780288-12.148736-2.441216-23.087104-3.64032-32.820224-3.64032-165.385216 0-293.049344 124.056576-293.049344 273.59744 0 25.55904 3.647488 48.620544 9.718784 72.97536-9.718784 1.206272-20.673536 1.206272-30.406656 1.206272m507.087872 119.1936l24.300544 87.552-92.413952-52.308992c-35.264512 7.283712-69.307392 18.266112-104.56576 18.266112-162.952192 0-291.856384-111.910912-291.856384-250.560512 0-138.569728 128.902144-250.456064 291.856384-250.456064C859.764736 372.772864 998.4 484.6592 998.4 623.228928c0 77.857792-52.283392 147.141632-120.383488 197.051392M257.855488 262.111232c-25.535488 0-52.291584 15.777792-52.291584 42.535936 0 25.549824 26.75712 42.566656 52.291584 42.566656 24.308736 0 43.776-17.015808 43.776-42.566656 0-26.758144-19.474432-42.535936-43.776-42.535936m543.540224 249.296896c-18.248704 0-34.04288 15.777792-34.04288 35.244032 0 15.77472 15.794176 31.6416 34.04288 31.6416 24.328192 0 42.576896-15.86688 42.576896-31.6416 0-19.46624-18.248704-35.244032-42.576896-35.244032m0 0" p-id="1596"></path>
</symbol>
<symbol id="icon-qrcode" viewBox="0 0 1024 1024">
<title></title>
<path d="M31.680243 0h410.475792c41.739557 4.072103 31.677244 76.516357 31.677244 123.584432v224.082618c0 48.706312 9.301667 108.394508-23.413094 122.230062-21.308074 9.005805-78.493436 2.713736-106.065592 2.713736h-217.628625C76.414405 472.610848 7.718405 484.449334 0 441.376398V31.233451C5.627379 15.957567 15.519771 4.890722 31.680243 0z m56.476692 92.348982v291.987986h296.148048V88.27388H89.536292c-1.608251 0.226894-1.499302 2.149998-1.379357 4.075102zM582.65059 0h410.47879c16.743201 6.124147 28.244843 17.418886 31.675245 36.668919v399.27401c-3.754251 16.59527-12.543157 30.760671-28.923527 35.307553-26.773528 7.432538-71.266802 1.360366-103.307877 1.360366H681.825392c-31.779197 0-78.883255 6.601925-104.681237-1.359367-36.427032-11.234767-26.16981-81.335112-26.16981-130.374269V131.731637c0-56.615627-12.607127-123.822321 31.676245-131.731637z m56.476692 92.348982v291.987986h296.148048V88.27388H640.501641c-1.602254 0.226894-1.494304 2.149998-1.374359 4.075102z m-415.986226 85.560144c41.247786-7.676424 73.679679 19.800776 74.38535 57.035432 0.92357 49.110124-49.944735 76.086557-89.534293 55.68706-45.292902-23.343126-42.31229-102.031472 15.148943-112.722492z m550.971347 0c97.154743-17.895664 95.290612 133.797674 0 118.150963-60.636754-9.955363-62.594842-106.623333 0-118.150963z m-334.710086 846.089874H33.057601c-16.872141-5.101624-28.265833-15.594736-33.057601-32.596815V582.618604c4.011132-11.964427 13.270818-25.917927 27.545169-29.880081 26.967438-7.480515 71.009922-1.360366 103.312875-1.360366H341.600875c31.147491 0 76.474377-6.850809 104.686235 1.359367 38.165222 11.107826 27.544169 80.0747 27.54417 129.0199V897.691837c0.001999 52.825393 11.544622 121.588362-34.428963 126.306164zM88.155935 643.727139v291.994983h296.149048V639.653037H89.536292c-1.608251 0.232892-1.499302 2.149998-1.379357 4.074102z m936.64969-55.677065v114.080859c-3.210504 38.475078-0.456787 82.838412-1.371361 123.584432H730.037934v-66.544002c-27.552166-3.174521-61.068553-0.457787-90.908653-1.362366-3.216502 86.012933-0.457787 177.907127-1.379358 266.189004h-53.717977c-46.188484-9.132746-33.056602-77.465915-33.056602-131.738634v-210.501943c0-31.652256-6.501971-79.110149 1.372361-104.573288 9.400621-30.385846 50.143642-25.805979 90.91465-25.805979H842.987319v180.624861h92.29001c0.914574-59.755165-1.837144-123.131643 1.37336-180.625861 44.411312-2.588794 85.550149-1.950092 88.154936 36.672917zM230.032846 727.924918c44.040485-4.804762 80.442528 36.932796 63.362484 82.853405-23.682968 63.641355-136.908225 39.721497-115.707101-40.74602 5.858271-22.24064 22.792383-38.871893 52.345617-42.106386zM829.213735 1024h-99.173802c0.915574-34.86276-1.839143-73.340836 1.379357-105.932654h97.794445v105.932654z m195.592889-105.934653v69.264735c-3.829216 19.307006-15.282881 31.096515-33.056601 36.668918h-70.247278c0.915574-34.86376-1.837144-73.340836 1.379358-105.933653h101.924521z m0 0" p-id="6535" fill="#ffffff"></path>
</symbol>
<symbol id="icon-sell" viewBox="0 0 1024 1024">
<title></title>
<path d="M830.416 373.674c-23.682-22.734-48.929-42.963-74.281-60.598-3.749-2.601-6.66-4.453-10.075-6.692 47.024-14.697 79.938-49.878 79.938-91.582 0-56.093-58.551-98.998-128.028-98.998-16.012 0-30.791 2.741-43.945 7.3-6.157 2.122-9.687 4.284-13.493 6.302-2.355 0.866-8.724-0.135-10.125-1.765l-0.054 0.054c-5.319-7.25-13.27-16.209-24.914-25.36-22.115-17.469-53.686-27.934-83.577-27.934s-50.775 10.466-72.889 27.963c-11.364 8.927-19.138 17.66-24.462 24.798l-0.054-0.031c-2.014 2.183-7.22 3.297-9.012 2.492-3.863-2.070-8.622-4.308-15.060-6.521-13.152-4.564-27.932-7.3-43.945-7.3-69.527 0-123.654 42.908-123.654 98.998 0 35.663 19.759 66.475 56.093 83.913-3.584 2.355-7.449 4.868-11.59 7.726-25.305 17.153-50.547 37.17-74.23 59.929-68.747 66.114-111.118 133.621-111.118 217.567 0 232.819 200.238 350.321 429.924 350.321 96.288 0 181.488-16.235 257.618-57.493 103.339-55.924 172.308-158.143 172.308-292.831 0.002-78.902-52.279-144.064-121.359-210.262zM705.745 523.147c-16.682 15.678-41.65 15.678-58.384 0l-80.447-98.22v299.858c0 22.279-15.844 37.513-39.466 37.513-23.682 0-39.465-15.226-39.465-37.513v-299.858l-87.888 98.22c-16.74 15.678-44.95 15.678-61.637 0-16.738-15.762-17.245-41.284-0.557-56.985l151.93-150.527c9.916-9.299 31.461-11.781 34.822-11.781 0.724 0 1.343 0.332 2.119 0.369 11.643-0.51 26.54 3.025 35.498 11.45l143.479 150.501c16.735 15.702 16.735 41.233-0.001 56.983z" p-id="20509" fill="#ffffff"></path>
</symbol>
<symbol id="icon-wx" viewBox="0 0 1024 1024">
<title></title>
<path d="M523.83744 994.24256c-267.79136 0-485.65248-217.86112-485.65248-485.65248S256.0512 22.93248 523.83744 22.93248s485.65248 217.86112 485.65248 485.65248-217.86112 485.6576-485.65248 485.6576z m0-944.0768c-252.7744 0-458.4192 205.64992-458.4192 458.4192 0 252.78976 205.64992 458.4192 458.4192 458.4192s458.4192-205.62944 458.4192-458.4192c0.00512-252.76928-205.6448-458.4192-458.4192-458.4192z" fill="#ffffff" p-id="7482"></path><path d="M633.4208 437.6576c5.84704 0 11.59168 0.47104 17.37728 1.13152-15.56992-76.27264-93.06112-132.94592-181.54496-132.94592-98.90816 0-179.92192 70.90176-179.92192 160.9984 0 51.97312 26.93632 94.6688 71.99232 127.83104l-17.98656 56.91904 62.90432-33.15712c22.49728 4.63872 40.54016 9.46688 63.01184 9.46688 5.65248 0 11.24352-0.26112 16.77312-0.69632-3.50208-12.67712-5.56032-25.91232-5.56032-39.7312 0.03072-82.69312 67.52256-149.81632 152.95488-149.81632z m-96.7168-51.31264c13.59872 0 22.528 9.38496 22.528 23.62368 0 14.1824-8.92928 23.68-22.528 23.68-13.44 0-26.97728-9.49248-26.97728-23.68 0.00512-14.26432 13.50656-23.62368 26.97728-23.62368z m-125.91104 47.29856c-13.49632 0-27.10016-9.49248-27.10016-23.68 0-14.23872 13.60384-23.62368 27.10016-23.62368 13.50144 0 22.46656 9.35936 22.46656 23.62368 0 14.18752-8.96512 23.68-22.46656 23.68z m386.88256 151.56736c0-75.6736-71.99232-137.36448-152.85248-137.36448-85.62176 0-153.0112 61.71136-153.0112 137.36448 0 75.87328 67.42016 137.35936 153.0112 137.35936 17.92 0 35.99872-4.71552 53.98528-9.45664l49.34144 28.46208-13.5424-47.32928c36.13184-28.544 63.06816-66.34496 63.06816-109.03552z m-202.48064-23.70048c-8.92416 0-17.97632-9.3696-17.97632-18.93376 0-9.40544 9.05216-18.91328 17.97632-18.91328 13.66528 0 22.528 9.50784 22.528 18.91328 0 9.56416-8.86272 18.93376-22.528 18.93376z m98.9696 0c-8.86272 0-17.88416-9.3696-17.88416-18.93376 0-9.40544 8.99584-18.91328 17.88416-18.91328 13.53728 0 22.528 9.50784 22.528 18.91328 0 9.56416-8.99072 18.93376-22.528 18.93376z" fill="#ffffff" p-id="7483"></path>
</symbol>
<symbol id="icon-xl" viewBox="0 0 1024 1024">
<title></title>
<path d="M637.49 506.51c-20.28-3.96-10.44-14.85-10.44-14.85s19.86-32.73-3.93-56.52c-29.46-29.46-101.070 3.75-101.070 3.75-27.36 8.49-20.1-3.87-16.23-24.9 0-24.78-8.49-66.75-81.33-41.97-72.78 24.9-135.27 112.2-135.27 112.2-43.47 57.99-37.71 102.81-37.71 102.81 10.86 98.94 116.010 126.12 197.76 132.54 86.040 6.75 202.14-29.67 237.36-104.43 35.19-74.94-28.8-104.58-49.14-108.63M455.63 691.67c-85.41 3.99-154.44-38.82-154.44-95.85 0-57.060 69.030-102.81 154.44-106.74 85.47-3.96 154.65 31.26 154.65 88.2-0.030 57-69.18 110.49-154.65 114.39z" p-id="5439" fill="#ffffff"></path><path d="M438.59 526.67c-85.92 10.050-75.99 90.51-75.99 90.51s-0.87 25.47 23.040 38.46c50.28 27.21 102.030 10.74 128.19-23.040 26.13-33.78 10.77-115.92-75.24-105.93M416.93 639.59c-16.050 1.86-28.98-7.38-28.98-20.79 0-13.35 11.49-27.36 27.54-29.010 18.42-1.74 30.42 8.85 30.42 22.26-0.030 13.38-13.020 25.74-28.98 27.54M467.57 596.45c-5.43 4.050-12.12 3.51-14.97-1.38-3-4.74-1.86-12.36 3.63-16.35 6.36-4.74 12.99-3.39 15.84 1.38 2.85 4.86 0.78 12.15-4.5 16.35z" p-id="5440" fill="#ffffff"></path><path d="M679.31 471.65c6.93 0 12.81-5.13 13.8-11.79 0.12-0.51 0.18-0.93 0.18-1.5 10.5-94.32-77.31-78.090-77.31-78.090-7.8 0-14.040 6.3-14.040 14.16 0 7.74 6.24 14.040 14.040 14.040 63.060-13.92 49.14 49.14 49.14 49.14 0.030 7.8 6.39 14.040 14.19 14.040z" p-id="5441" fill="#ffffff"></path><path d="M669.080 307.010c-30.33-7.11-61.56-0.96-70.32 0.69-0.66 0.060-1.32 0.69-1.92 0.81-0.3 0.060-0.51 0.39-0.51 0.39-8.61 2.43-14.94 10.41-14.94 19.86 0 11.25 9.12 20.49 20.49 20.49 0 0 11.040-1.47 18.54-4.41 7.41-3 70.29-2.25 101.52 50.19 17.040 38.28 7.5 63.87 6.3 68.010 0 0-4.050 9.93-4.050 19.74 0 11.31 9.12 18.42 20.4 18.42 9.45 0 17.37-1.29 19.68-17.25h0.12c33.54-111.78-41.010-164.28-95.31-176.94z" p-id="5442" fill="#ffffff"></path><path d="M512 32c-265.11 0-480 214.92-480 480 0 265.11 214.89 480 480 480 265.080 0 480-214.89 480-480 0-265.080-214.92-480-480-480M512 964.22c-249.75 0-452.22-202.47-452.22-452.22s202.47-452.19 452.22-452.19c249.75 0 452.22 202.47 452.22 452.19 0 249.75-202.47 452.22-452.22 452.22z" p-id="5443" fill="#ffffff"></path>
</symbol>
<symbol id="icon-video2" viewBox="0 0 1024 1024">
<title></title>
<path d="M511.999744 0.000512C228.710286 0.000512 0 228.710798 0 512.000256s229.580685 511.999744 511.999744 511.999744 511.999744-229.478285 511.999744-511.948544A511.385344 511.385344 0 0 0 511.999744 0.000512z m0 947.813926c-240.84468 0-435.762982-194.918303-435.762982-435.762982S271.155064 76.288474 511.999744 76.288474c240.84468 0 435.762982 194.918303 435.762982 435.762982S752.844424 947.814438 511.999744 947.814438z m195.788702-471.295764l-264.191868-152.473524c-26.879987-15.615992-61.542369 4.351998-61.542369 35.532782v305.817447c0 31.180784 33.791983 51.097574 61.542369 35.481583l264.191868-152.524724c26.879987-16.332792 26.879987-56.268772 0-71.833564z" p-id="6413" fill="#ffffff"></path>
</symbol>
<symbol id="icon-help2" viewBox="0 0 1025 1024">
<title></title>
<path d="M513.096869 1.278402c-282.416899 0-511.360799 228.9439-511.360799 511.360799s228.9439 511.360799 511.360799 511.360799 511.360799-228.9439 511.360799-511.360799S795.513768 1.278402 513.096869 1.278402zM513.096869 934.51186c-232.993878 0-421.872659-188.878782-421.872659-421.872659s188.878782-421.872659 421.872659-421.872659 421.872659 188.878782 421.872659 421.872659S746.090747 934.51186 513.096869 934.51186z" p-id="3401" fill="#ffffff"></path><path d="M498.296809 736.515516c-16.321358 0-29.960629 5.48818-40.926762 16.450477-10.968689 10.977638-16.455591 24.61563-16.455591 40.933154 0 16.316245 5.486901 29.95168 16.455591 40.925483 10.967411 10.967411 24.606682 16.453034 40.926762 16.453034 16.307296 0 29.958072-5.485623 40.922926-16.453034 10.962297-10.973803 16.450477-24.609238 16.450477-40.925483 0-16.317523-5.48818-29.955516-16.450477-40.933154C528.254881 742.003695 514.604105 736.515516 498.296809 736.515516z" p-id="3402" fill="#ffffff"></path><path d="M638.797024 244.572365c-14.916395-13.502482-32.782062-23.484245-53.580385-29.956794-20.832839-6.459765-43.333993-9.414152-67.511131-8.861883-24.766482 0.570167-47.969478 4.364464-69.615381 11.394397-21.665079 7.04016-40.50361 16.454312-56.537328 28.266747-16.033718 11.813713-28.691176 26.026986-37.973653 42.611695-9.282477 16.602607-13.920519 34.741853-13.920519 54.426687 0 14.068814 3.649838 24.762647 10.969968 32.064879 7.300954 7.32013 19.406142 11.258886 36.27977 11.812434 13.501203 0 26.714767-3.648559 39.659865-10.968689 12.934871-7.300954 19.408699-18.270921 19.408699-32.908624 0-14.621084 7.026097-25.31236 21.09619-32.0636 14.059865-6.749963 30.087191-10.403635 48.090926-10.968689 18.005014-0.554826 33.468564 3.240749 46.422612 11.390562 12.919531 8.161318 19.398472 23.770607 19.398472 46.829144 0 9.575231-0.83224 18.145638-2.522287 25.740624-1.687491 7.594986-4.515316 15.188694-8.438732 22.782402-3.956654 7.591151-9.425658 15.609288-16.468375 24.04802-7.04016 8.438732-15.597783 17.721208-25.725283 27.847431-13.502482 12.945099-25.316195 26.865618-35.443695 41.766672-10.124944 14.915116-18.563675 29.828954-25.316195 44.714667-6.749963 14.915116-11.956894 28.978816-15.610567 42.193658-3.667735 13.228904-5.486901 24.342052-5.486901 33.32794 0 17.456579 5.06375 29.964464 15.189973 37.555615 10.126222 7.591151 22.497318 11.388005 37.129908 11.388005 14.619805 0 26.994737-4.075546 37.11968-12.226637 10.127501-8.147256 15.191251-20.386677 15.191251-36.716984 0-10.674657 0.699286-20.528579 2.114477-29.525973 1.39985-8.985888 4.635486-18.137968 9.699236-27.430672 5.06375-9.273528 12.367261-19.673328 21.939935-31.213463 9.566282-11.528629 22.487091-25.173014 38.817398-40.926762 24.174582-23.064929 40.352759-44.577878 48.516634-64.555466 8.15237-19.958412 12.514277-41.199061 13.076774-63.707885 0.561218-25.864629-3.235635-48.64831-11.386727-68.345928C665.220315 274.671061 653.685293 258.07229 638.797024 244.572365z" p-id="3403" fill="#ffffff"></path>
</symbol>
<symbol id="icon-top2" viewBox="0 0 1024 1024">
<title></title>
<path d="M240.29184 239.12448h543.40608v83.59936H240.29184zM240.29184 784.87552h543.41632L512 366.86848z" p-id="2379" fill="#ffffff"/>
</symbol>
<symbol id="icon-designer" viewBox="0 0 1024 1024">
<title></title>
<path d="M871.853299 361.734648 871.853299 150.409638 660.52829 150.409638 511.141958 1.023306 361.756649 150.409638 150.431639 150.409638l0 211.32501L1.044284 511.119957l149.386332 149.419078 0 211.292264 211.291241 0L511.141958 1021.284145l149.420101-149.452847 211.291241 0 0-211.292264 149.385309-149.419078L871.853299 361.734648zM510.377548 706.235796 322.200748 316.002071l94.455255 0 94.485955 205.049073 94.122681-205.049073 94.819552 0L510.377548 706.235796z" p-id="2304" fill="#d5d5de"></path>
</symbol>
<symbol id="icon-weibi" viewBox="0 0 1024 1024">
<title></title>
<path d="M510.389828 65.789379c-245.86671 0-445.174012 199.307302-445.174012 445.174012s199.307302 445.174012 445.174012 445.174012c245.86671 0 445.174012-199.307302 445.174012-445.174012S756.255515 65.789379 510.389828 65.789379zM510.367315 757.979274c0.002047-44.913932-202.100928-247.016907-247.01486-247.01486 44.913932-0.002047 247.035326-202.124464 247.037373-247.037373-0.002047 44.913932 202.100928 247.035326 247.01486 247.037373C712.491779 510.962368 510.369362 713.065342 510.367315 757.979274z" p-id="3609" fill="#d5d5de"></path>
</symbol>
<symbol id="icon-danger" viewBox="0 0 1024 1024">
<title></title>
<path d="M512 1024C229.239467 1024 0 794.760533 0 512 0 229.239467 229.239467 0 512 0c282.760533 0 512 229.239467 512 512 0 282.760533-229.239467 512-512 512zM477.866667 273.134933v341.1968a34.0992 34.0992 0 1 0 68.266666 0V273.134933a34.0992 34.0992 0 1 0-68.266666 0zM512 785.066667a34.133333 34.133333 0 1 0 0-68.266667 34.133333 34.133333 0 0 0 0 68.266667z" p-id="9648" fill="#fb954b"></path>
</symbol>
<symbol id="icon-phone" viewBox="0 0 1025 1024">
<title></title>
<path d="M507.918859 650.527512c-49.503789-40.346806-106.623387-94.611243-156.090335-155.822216-34.713235-42.89496-65.404683-87.94306-33.707276-119.633303L95.656089 153.242337C63.221866 193.655661-8.620745 386.103763 299.338585 701.174388c324.458887 332.036833 533.74323 261.005742 569.766359 223.573453L652.205814 708.149578C621.886867 738.400983 582.842793 711.503113 507.918859 650.527512zM947.385483 798.906865l0-0.201601c0 0-169.23738-168.702166-169.343809-168.769707-13.381394-13.347623-34.814547-13.078481-48.127376 0.067541l-61.340939 61.375733 217.469138 217.203066c0 0 61.409504-61.176179 61.342986-61.245767l0.165784-0.132013C961.605005 833.148333 960.162074 811.75202 947.385483 798.906865zM396.298428 297.126091l0-0.168854c14.051691-14.083415 12.74589-35.45005 0-48.196964l0-0.234348c0 0-174.132089-173.597897-174.200654-173.597897-13.452005-13.484753-34.884135-13.148069-48.163193 0l-61.342986 61.441228 222.299375 221.961668C334.888924 358.335017 396.298428 297.225356 396.298428 297.126091z" p-id="4069" fill="#ffffff"></path>
</symbol>
<!-- zwt -->
<symbol id="icon-senior" viewBox="0 0 1024 1024">
  <title></title>
  <path d="M463.202109 924.060847c0.00614 0 0.011256 0 0.011256 0l-0.005117-0.033769L463.202109 924.060847z" p-id="25455" fill="#ffffff"/><path d="M463.224622 924.106896l0-0.046049c0 0-0.00614 0-0.011256 0L463.224622 924.106896z" p-id="25456" fill="#ffffff"/><path d="M463.190853 923.924747 463.208249 924.027078 463.224622 923.924747Z" p-id="25457" fill="#ffffff"/><path d="M670.003082 271.868921c0-114.215298-92.585675-206.800973-206.800973-206.800973-114.221438 0-206.813253 92.585675-206.813253 206.800973 0 114.205065 92.590791 206.801996 206.813253 206.801996C577.41843 478.669894 670.003082 386.072963 670.003082 271.868921z" p-id="25458" fill="#ffffff"/><path d="M242.15569 542.302143c-88.958054 0-192.580087 294.307979-156.971078 318.17148 0 0 257.963213 61.910025 378.01238 63.587224L394.252761 542.302143C322.124 542.302143 242.15569 542.302143 242.15569 542.302143z" p-id="25459" fill="#ffffff"/><path d="M784.854876 645.499503c-86.567611 0-156.717298 70.160943-156.717298 156.715251 0 86.567611 70.161966 156.717298 156.717298 156.717298 86.565565 0 156.715251-70.161966 156.715251-156.717298C941.571151 715.650213 871.408161 645.499503 784.854876 645.499503zM804.171828 890.799302l-32.989345 0-56.455803-167.100786 37.296441 0 36.277228 126.856199 36.616966-126.856199 36.277228 0L804.171828 890.799302z" p-id="25460" fill="#ffffff"/><path d="M784.854876 628.085902c0.203638 0 0.407276 0 0.599657 0-27.331485-48.815799-59.687404-85.783759-91.428316-85.783759L532.140201 542.302143l-68.915579 381.622604 0.011256 0-0.011256 0.1361c1.648546 0.033769 3.28686 0.046049 4.885264 0.046049 44.665269 0 110.554932-9.159614 175.126576-20.529569-20.462031-28.54615-32.511461-63.542198-32.511461-101.361549C610.725 706.048531 688.664094 628.085902 784.854876 628.085902z" p-id="25461" fill="#ffffff"/>
</symbol>
</defs>
</svg>
