<svg xmlns="http://www.w3.org/2000/svg" width="21" height="18" viewBox="0 0 21 18">
  <metadata><?xpacket begin="﻿" id="W5M0MpCehiHzreSzNTczkc9d"?>
<x:xmpmeta xmlns:x="adobe:ns:meta/" x:xmptk="Adobe XMP Core 5.6-c138 79.159824, 2016/09/14-01:09:01        ">
   <rdf:RDF xmlns:rdf="http://www.w3.org/1999/02/22-rdf-syntax-ns#">
      <rdf:Description rdf:about=""/>
   </rdf:RDF>
</x:xmpmeta>
                                                                                                    
                                                                                                    
                                                                                                    
                                                                                                    
                                                                                                    
                                                                                                    
                                                                                                    
                                                                                                    
                                                                                                    
                                                                                                    
                                                                                                    
                                                                                                    
                                                                                                    
                                                                                                    
                                                                                                    
                                                                                                    
                                                                                                    
                                                                                                    
                                                                                                    
                                                                                                    
                           
<?xpacket end="w"?></metadata>
<defs>
    <style>
      .cls-1 {
        fill: #fff;
        fill-rule: evenodd;
      }
    </style>
  </defs>
  <path id="客服" class="cls-1" d="M3817.1,495.265h-3.97l-1.95,2.605a0.154,0.154,0,0,1-.05.036c-0.02.012-.03,0.028-0.05,0.039s-0.02,0-.03.008a0.379,0.379,0,0,1-.1.032,0.434,0.434,0,0,1-.07.014,0.44,0.44,0,0,1-.1-0.006,0.567,0.567,0,0,1-.09-0.016c-0.02-.009-0.04-0.021-0.07-0.034a0.569,0.569,0,0,1-.09-0.058,0.031,0.031,0,0,1-.02-0.015,0.091,0.091,0,0,1-.03-0.037c-0.02-.018-0.03-0.031-0.05-0.051l-1.57-2.517h-2.96a1.863,1.863,0,0,1-1.9-1.823v-7.619a1.862,1.862,0,0,1,1.9-1.823h11.2a1.862,1.862,0,0,1,1.9,1.823v7.619a1.863,1.863,0,0,1-1.9,1.823h0Zm-8.39-.248a0.627,0.627,0,0,1-.05-0.133,0.436,0.436,0,0,0,.09.189Zm0.11-.549a0.123,0.123,0,0,0-.04.031,0.111,0.111,0,0,1,.04-0.031h0Zm-0.17.364c0-.024.01-0.048,0.01-0.071,0,0.016-.01.031-0.01,0.048v0.023h0Zm0.05-.224a0.068,0.068,0,0,1-.02.037,0.068,0.068,0,0,0,.02-0.037h0Zm9.35-8.785a0.934,0.934,0,0,0-.95-0.912h-11.2a0.928,0.928,0,0,0-.95.912v7.618a0.928,0.928,0,0,0,.95.912h3.22a0.062,0.062,0,0,1-.02,0,0.477,0.477,0,0,1,.43.216l1.5,1.976,1.55-2.064a0.5,0.5,0,0,1,.36-0.132h4.16a0.934,0.934,0,0,0,.95-0.911v-7.619Zm-9.13,8.576a0.456,0.456,0,0,1,.06-0.018,0.456,0.456,0,0,0-.06.018h0Zm-2.88-7.483h10.01a0.584,0.584,0,1,1,0,1.167h-10.01c-0.32,0,.42-0.261.42-0.583S3805.72,486.916,3806.04,486.916Zm0,2.917h5.12a0.584,0.584,0,0,1,0,1.167h-5.12c-0.32,0,.42-0.261.42-0.584S3805.72,489.833,3806.04,489.833Z" transform="translate(-3801 -482)"/>
</svg>
